<mxfile host="app.diagrams.net" modified="2024-06-16T04:49:04.747Z" agent="Mozilla/5.0 (Windows NT 10.0; Win64; x64) AppleWebKit/537.36 (KHTML, like Gecko) Chrome/126.0.0.0 Safari/537.36" version="24.3.1" etag="65skBM64ov-LFPvp-fd1" type="github">
  <diagram name="Page-1" id="DcDnO-t2ML5M7wWebKFw">
    <mxGraphModel>
      <root>
        <mxCell id="0" />
        <mxCell id="1" parent="0" />
      </root>
    </mxGraphModel>
  </diagram>
</mxfile>
